<svg id="flat" height="512" viewBox="0 0 512 512" width="512" xmlns="http://www.w3.org/2000/svg"><path d="m408 56v328a16 16 0 0 1 -16 16h-168v-328a16 16 0 0 1 16-16z" fill="#de9400"/><path d="m352 440a16 16 0 0 0 16-16v-328h-168a16 16 0 0 0 -16 16v328z" fill="#eda600"/><path d="m328 136h-174.05891a24 24 0 0 0 -16.97057 7.02944l-57.94109 57.94113a24 24 0 0 0 -7.02943 16.97055v254.05888a16 16 0 0 0 16 16h224a16 16 0 0 0 16-16z" fill="#f6bb00"/><path d="m184 256-16 12a40 40 0 0 0 -16 32v28h96v-28a40 40 0 0 0 -16-32l-16-12z" fill="#548aff"/><path d="m192 304h16v24h-16z" fill="#486be0"/><path d="m192 256h16v32h-16z" fill="#486be0"/><rect fill="#548aff" height="176" rx="16" width="176" x="272" y="24"/><path d="m360 136 40 32-16-48 32-32h-40l-16-40-16 40h-40l32 32-16 48z" fill="#e5e7e9"/><g fill="#cf8300"><path d="m160 432h-48a8.00039 8.00039 0 0 1 -8-8v-48a8.00039 8.00039 0 0 1 8-8h48a8.00039 8.00039 0 0 1 8 8v48a8.00039 8.00039 0 0 1 -8 8zm-40-16h32v-32h-32z"/><path d="m240 384h56v16h-56z"/><path d="m200 384h24v16h-24z"/><path d="m264 416h32v16h-32z"/><path d="m184 416h64v16h-64z"/></g><path d="m127.716 371.999h56.569v16.001h-56.569z" fill="#e33d3d" transform="matrix(.707 -.707 .707 .707 -223.009 221.608)"/><path d="m224 216v24a24 24 0 0 1 -24 24 24 24 0 0 1 -24-24v-24z" fill="#f5c99d"/><path d="m176 216h48v-13.57781a18.42218 18.42218 0 0 0 -18.42219-18.42219 18.42223 18.42223 0 0 0 -10.21879 3.094l-19.35902 12.906z" fill="#b1792c"/></svg>